# xmcd
#
# Track frame offsets: 
#        300
#        27360
#        48550
#        70375
#        92795
#        129390
#        166270
#        188035
#        211590
#
# Disc length: 3364 seconds
#
# Revision: 0
# Processed by: cddbd v1.5.2PL0 Copyright (c) Steve Scherf et al.
# Submitted via: ExactAudioCopy v0.99pb4
#
DISCID=780d2009
DTITLE=Chris Duarte Group - Mcguffy's House Of Draft Ohio [CD1]
DYEAR=1995
DGENRE=Blues
TTITLE0=Instrumental
TTITLE1=Letter To My Girlfriend
TTITLE2=Scrawl
TTITLE3=Crazy
TTITLE4=Catch The Next Line
TTITLE5=Borrowed Love
TTITLE6=Let's Have A Party
TTITLE7=Poison (Tape Flip)
TTITLE8=Poison (Cont.)
EXTD=
EXTT0=
EXTT1=
EXTT2=
EXTT3=
EXTT4=
EXTT5=
EXTT6=
EXTT7=
EXTT8=
PLAYORDER=
